<svg id="my-svg" width="100%" xmlns="http://www.w3.org/2000/svg" xmlns:xlink="http://www.w3.org/1999/xlink" class="classDiagram" style="max-width: 2083.42px; background-color: white;" viewBox="0 0 2083.421875 396" role="graphics-document document" aria-roledescription="classDiagram"><style>#my-svg{font-family:"trebuchet ms",verdana,arial,sans-serif;font-size:16px;fill:#333;}@keyframes edge-animation-frame{from{stroke-dashoffset:0;}}@keyframes dash{to{stroke-dashoffset:0;}}#my-svg .edge-animation-slow{stroke-dasharray:9,5!important;stroke-dashoffset:900;animation:dash 50s linear infinite;stroke-linecap:round;}#my-svg .edge-animation-fast{stroke-dasharray:9,5!important;stroke-dashoffset:900;animation:dash 20s linear infinite;stroke-linecap:round;}#my-svg .error-icon{fill:#552222;}#my-svg .error-text{fill:#552222;stroke:#552222;}#my-svg .edge-thickness-normal{stroke-width:1px;}#my-svg .edge-thickness-thick{stroke-width:3.5px;}#my-svg .edge-pattern-solid{stroke-dasharray:0;}#my-svg .edge-thickness-invisible{stroke-width:0;fill:none;}#my-svg .edge-pattern-dashed{stroke-dasharray:3;}#my-svg .edge-pattern-dotted{stroke-dasharray:2;}#my-svg .marker{fill:#333333;stroke:#333333;}#my-svg .marker.cross{stroke:#333333;}#my-svg svg{font-family:"trebuchet ms",verdana,arial,sans-serif;font-size:16px;}#my-svg p{margin:0;}#my-svg g.classGroup text{fill:#9370DB;stroke:none;font-family:"trebuchet ms",verdana,arial,sans-serif;font-size:10px;}#my-svg g.classGroup text .title{font-weight:bolder;}#my-svg .cluster-label text{fill:#333;}#my-svg .cluster-label span{color:#333;}#my-svg .cluster-label span p{background-color:transparent;}#my-svg .cluster rect{fill:#ffffde;stroke:#aaaa33;stroke-width:1px;}#my-svg .cluster text{fill:#333;}#my-svg .cluster span{color:#333;}#my-svg .nodeLabel,#my-svg .edgeLabel{color:#131300;}#my-svg .noteLabel .nodeLabel,#my-svg .noteLabel .edgeLabel{color:black;}#my-svg .edgeLabel .label rect{fill:#ECECFF;}#my-svg .label text{fill:#131300;}#my-svg .labelBkg{background:#ECECFF;}#my-svg .edgeLabel .label span{background:#ECECFF;}#my-svg .classTitle{font-weight:bolder;}#my-svg .node rect,#my-svg .node circle,#my-svg .node ellipse,#my-svg .node polygon,#my-svg .node path{fill:#ECECFF;stroke:#9370DB;stroke-width:1;}#my-svg .divider{stroke:#9370DB;stroke-width:1;}#my-svg g.clickable{cursor:pointer;}#my-svg g.classGroup rect{fill:#ECECFF;stroke:#9370DB;}#my-svg g.classGroup line{stroke:#9370DB;stroke-width:1;}#my-svg .classLabel .box{stroke:none;stroke-width:0;fill:#ECECFF;opacity:0.5;}#my-svg .classLabel .label{fill:#9370DB;font-size:10px;}#my-svg .relation{stroke:#333333;stroke-width:1;fill:none;}#my-svg .dashed-line{stroke-dasharray:3;}#my-svg .dotted-line{stroke-dasharray:1 2;}#my-svg [id$="-compositionStart"],#my-svg .composition{fill:#333333!important;stroke:#333333!important;stroke-width:1;}#my-svg [id$="-compositionEnd"],#my-svg .composition{fill:#333333!important;stroke:#333333!important;stroke-width:1;}#my-svg [id$="-dependencyStart"],#my-svg .dependency{fill:#333333!important;stroke:#333333!important;stroke-width:1;}#my-svg [id$="-dependencyEnd"],#my-svg .dependency{fill:#333333!important;stroke:#333333!important;stroke-width:1;}#my-svg [id$="-extensionStart"],#my-svg .extension{fill:transparent!important;stroke:#333333!important;stroke-width:1;}#my-svg [id$="-extensionEnd"],#my-svg .extension{fill:transparent!important;stroke:#333333!important;stroke-width:1;}#my-svg [id$="-aggregationStart"],#my-svg .aggregation{fill:transparent!important;stroke:#333333!important;stroke-width:1;}#my-svg [id$="-aggregationEnd"],#my-svg .aggregation{fill:transparent!important;stroke:#333333!important;stroke-width:1;}#my-svg [id$="-lollipopStart"],#my-svg .lollipop{fill:#ECECFF!important;stroke:#333333!important;stroke-width:1;}#my-svg [id$="-lollipopEnd"],#my-svg .lollipop{fill:#ECECFF!important;stroke:#333333!important;stroke-width:1;}#my-svg .edgeTerminals{font-size:11px;line-height:initial;}#my-svg .classTitleText{text-anchor:middle;font-size:18px;fill:#333;}#my-svg .edgeLabel[data-look="neo"]{background-color:rgba(232,232,232, 0.8);text-align:center;}#my-svg .edgeLabel[data-look="neo"] p{background-color:rgba(232,232,232, 0.8);}#my-svg .edgeLabel[data-look="neo"] rect{opacity:0.5;background-color:rgba(232,232,232, 0.8);fill:rgba(232,232,232, 0.8);}#my-svg .label-icon{display:inline-block;height:1em;overflow:visible;vertical-align:-0.125em;}#my-svg .node .label-icon path{fill:currentColor;stroke:revert;stroke-width:revert;}#my-svg .node .neo-node{stroke:#9370DB;}#my-svg [data-look="neo"].node rect,#my-svg [data-look="neo"].cluster rect,#my-svg [data-look="neo"].node polygon{stroke:#9370DB;filter:drop-shadow(1px 2px 2px rgba(185, 185, 185, 1));}#my-svg [data-look="neo"].swimlane.cluster rect{filter:none;}#my-svg [data-look="neo"].node path{stroke:#9370DB;stroke-width:1px;}#my-svg [data-look="neo"].node .outer-path{filter:drop-shadow(1px 2px 2px rgba(185, 185, 185, 1));}#my-svg [data-look="neo"].node .neo-line path{stroke:#9370DB;filter:none;}#my-svg [data-look="neo"].node circle{stroke:#9370DB;filter:drop-shadow(1px 2px 2px rgba(185, 185, 185, 1));}#my-svg [data-look="neo"].node circle .state-start{fill:#000000;}#my-svg [data-look="neo"].icon-shape .icon{fill:#9370DB;filter:drop-shadow(1px 2px 2px rgba(185, 185, 185, 1));}#my-svg [data-look="neo"].icon-shape .icon-neo path{stroke:#9370DB;filter:drop-shadow(1px 2px 2px rgba(185, 185, 185, 1));}#my-svg :root{--mermaid-font-family:"trebuchet ms",verdana,arial,sans-serif;}</style><g><defs><marker id="my-svg_classDiagram-aggregationStart" class="marker aggregation classDiagram" refX="18" refY="7" markerWidth="190" markerHeight="240" orient="auto" markerUnits="userSpaceOnUse"><path d="M 18,7 L9,13 L1,7 L9,1 Z"/></marker></defs><defs><marker id="my-svg_classDiagram-aggregationEnd" class="marker aggregation classDiagram" refX="1" refY="7" markerWidth="20" markerHeight="28" orient="auto" markerUnits="userSpaceOnUse"><path d="M 18,7 L9,13 L1,7 L9,1 Z"/></marker></defs><defs><marker id="my-svg_classDiagram-aggregationStart-margin" class="marker aggregation classDiagram" refX="15" refY="7" markerWidth="190" markerHeight="240" orient="auto" markerUnits="userSpaceOnUse"><path d="M 18,7 L9,13 L1,7 L9,1 Z" style="stroke-width: 2;"/></marker></defs><defs><marker id="my-svg_classDiagram-aggregationEnd-margin" class="marker aggregation classDiagram" refX="1" refY="7" markerWidth="20" markerHeight="28" orient="auto" markerUnits="userSpaceOnUse"><path d="M 18,7 L9,13 L1,7 L9,1 Z" style="stroke-width: 2;"/></marker></defs><defs><marker id="my-svg_classDiagram-extensionStart" class="marker extension classDiagram" refX="18" refY="7" markerWidth="20" markerHeight="28" orient="auto" markerUnits="userSpaceOnUse"><path d="M 1,7 L18,13 V 1 Z"/></marker></defs><defs><marker id="my-svg_classDiagram-extensionEnd" class="marker extension classDiagram" refX="1" refY="7" markerWidth="20" markerHeight="28" orient="auto" markerUnits="userSpaceOnUse"><path d="M 1,1 V 13 L18,7 Z"/></marker></defs><marker id="my-svg_classDiagram-extensionStart-margin" class="marker extension classDiagram" refX="18" refY="7" markerWidth="20" markerHeight="28" orient="auto" markerUnits="userSpaceOnUse" viewBox="0 0 20 14"><polygon points="10,7 18,13 18,1" style="stroke-width: 2; stroke-dasharray: 0;"/></marker><defs><marker id="my-svg_classDiagram-extensionEnd-margin" class="marker extension classDiagram" refX="9" refY="7" markerWidth="20" markerHeight="28" orient="auto" markerUnits="userSpaceOnUse" viewBox="0 0 20 14"><polygon points="10,1 10,13 18,7" style="stroke-width: 2; stroke-dasharray: 0;"/></marker></defs><defs><marker id="my-svg_classDiagram-compositionStart" class="marker composition classDiagram" refX="18" refY="7" markerWidth="190" markerHeight="240" orient="auto" markerUnits="userSpaceOnUse"><path d="M 18,7 L9,13 L1,7 L9,1 Z"/></marker></defs><defs><marker id="my-svg_classDiagram-compositionEnd" class="marker composition classDiagram" refX="1" refY="7" markerWidth="20" markerHeight="28" orient="auto" markerUnits="userSpaceOnUse"><path d="M 18,7 L9,13 L1,7 L9,1 Z"/></marker></defs><defs><marker id="my-svg_classDiagram-compositionStart-margin" class="marker composition classDiagram" refX="15" refY="7" markerWidth="190" markerHeight="240" orient="auto" markerUnits="userSpaceOnUse"><path viewBox="0 0 15 15" d="M 18,7 L9,13 L1,7 L9,1 Z" style="stroke-width: 0;"/></marker></defs><defs><marker id="my-svg_classDiagram-compositionEnd-margin" class="marker composition classDiagram" refX="3.5" refY="7" markerWidth="20" markerHeight="28" orient="auto" markerUnits="userSpaceOnUse"><path d="M 18,7 L9,13 L1,7 L9,1 Z" style="stroke-width: 0;"/></marker></defs><defs><marker id="my-svg_classDiagram-dependencyStart" class="marker dependency classDiagram" refX="6" refY="7" markerWidth="190" markerHeight="240" orient="auto" markerUnits="userSpaceOnUse"><path d="M 5,7 L9,13 L1,7 L9,1 Z"/></marker></defs><defs><marker id="my-svg_classDiagram-dependencyEnd" class="marker dependency classDiagram" refX="13" refY="7" markerWidth="20" markerHeight="28" orient="auto" markerUnits="userSpaceOnUse"><path d="M 18,7 L9,13 L14,7 L9,1 Z"/></marker></defs><defs><marker id="my-svg_classDiagram-dependencyStart-margin" class="marker dependency classDiagram" refX="4" refY="7" markerWidth="190" markerHeight="240" orient="auto" markerUnits="userSpaceOnUse"><path d="M 5,7 L9,13 L1,7 L9,1 Z" style="stroke-width: 0;"/></marker></defs><defs><marker id="my-svg_classDiagram-dependencyEnd-margin" class="marker dependency classDiagram" refX="16" refY="7" markerWidth="20" markerHeight="28" orient="auto" markerUnits="userSpaceOnUse"><path d="M 18,7 L9,13 L14,7 L9,1 Z" style="stroke-width: 0;"/></marker></defs><defs><marker id="my-svg_classDiagram-lollipopStart" class="marker lollipop classDiagram" refX="13" refY="7" markerWidth="190" markerHeight="240" orient="auto" markerUnits="userSpaceOnUse"><circle fill="transparent" cx="7" cy="7" r="6"/></marker></defs><defs><marker id="my-svg_classDiagram-lollipopEnd" class="marker lollipop classDiagram" refX="1" refY="7" markerWidth="190" markerHeight="240" orient="auto" markerUnits="userSpaceOnUse"><circle fill="transparent" cx="7" cy="7" r="6"/></marker></defs><defs><marker id="my-svg_classDiagram-lollipopStart-margin" class="marker lollipop classDiagram" refX="13" refY="7" markerWidth="190" markerHeight="240" orient="auto" markerUnits="userSpaceOnUse"><circle fill="transparent" cx="7" cy="7" r="6" stroke-width="2"/></marker></defs><defs><marker id="my-svg_classDiagram-lollipopEnd-margin" class="marker lollipop classDiagram" refX="1" refY="7" markerWidth="190" markerHeight="240" orient="auto" markerUnits="userSpaceOnUse"><circle fill="transparent" cx="7" cy="7" r="6" stroke-width="2"/></marker></defs><g class="root"><g class="clusters"/><g class="edgePaths"><path d="M699.739,71.781L598.884,85.317C498.029,98.854,296.319,125.927,195.464,145.63C94.609,165.333,94.609,177.667,94.609,183.833L94.609,190" id="my-svg-id_Node_LifecycleNode_1" class="edge-thickness-normal edge-pattern-solid relation" style=";;;" data-edge="true" data-et="edge" data-id="id_Node_LifecycleNode_1" data-points="W3sieCI6NzE2LjgzNTkzNzUsInkiOjY5LjQ4NTgxNTM1NzY2OTYyfSx7IngiOjk0LjYwOTM3NSwieSI6MTUzfSx7IngiOjk0LjYwOTM3NSwieSI6MTkwfV0=" data-look="classic" marker-start="url(#my-svg_classDiagram-extensionStart)"/><path d="M699.975,77.693L641.881,90.244C583.787,102.795,467.598,127.898,409.504,147.115C351.41,166.333,351.41,179.667,351.41,186.333L351.41,193" id="my-svg-id_Node_ClassA_2" class="edge-thickness-normal edge-pattern-solid relation" style=";;;" data-edge="true" data-et="edge" data-id="id_Node_ClassA_2" data-points="W3sieCI6NzE2LjgzNTkzNzUsInkiOjc0LjA0OTgzOTA5NDEwNDQ0fSx7IngiOjM1MS40MTAxNTYyNSwieSI6MTUzfSx7IngiOjM1MS40MTAxNTYyNSwieSI6MTkzfV0=" data-look="classic" marker-start="url(#my-svg_classDiagram-extensionStart)"/><path d="M702.482,108.737L691.412,116.114C680.343,123.491,658.205,138.246,647.136,154.29C636.066,170.333,636.066,187.667,636.066,196.333L636.066,205" id="my-svg-id_Node_ClassB_3" class="edge-thickness-normal edge-pattern-solid relation" style=";;;" data-edge="true" data-et="edge" data-id="id_Node_ClassB_3" data-points="W3sieCI6NzE2LjgzNTkzNzUsInkiOjk5LjE3MDU5MDc1OTU0Nzk5fSx7IngiOjYzNi4wNjY0MDYyNSwieSI6MTUzfSx7IngiOjYzNi4wNjY0MDYyNSwieSI6MjA1fV0=" data-look="classic" marker-start="url(#my-svg_classDiagram-extensionStart)"/><path d="M842.737,108.737L853.806,116.114C864.875,123.491,887.014,138.246,898.083,154.29C909.152,170.333,909.152,187.667,909.152,196.333L909.152,205" id="my-svg-id_Node_ClassC_4" class="edge-thickness-normal edge-pattern-solid relation" style=";;;" data-edge="true" data-et="edge" data-id="id_Node_ClassC_4" data-points="W3sieCI6ODI4LjM4MjgxMjUsInkiOjk5LjE3MDU5MDc1OTU0Nzk5fSx7IngiOjkwOS4xNTIzNDM3NSwieSI6MTUzfSx7IngiOjkwOS4xNTIzNDM3NSwieSI6MjA1fV0=" data-look="classic" marker-start="url(#my-svg_classDiagram-extensionStart)"/><path d="M845.22,78.168L901.233,90.64C957.245,103.112,1069.269,128.056,1125.281,149.195C1181.293,170.333,1181.293,187.667,1181.293,196.333L1181.293,205" id="my-svg-id_Node_ThirdParty_5" class="edge-thickness-normal edge-pattern-solid relation" style=";;;" data-edge="true" data-et="edge" data-id="id_Node_ThirdParty_5" data-points="W3sieCI6ODI4LjM4MjgxMjUsInkiOjc0LjQxODg1NjI3NDQzMjk3fSx7IngiOjExODEuMjkyOTY4NzUsInkiOjE1M30seyJ4IjoxMTgxLjI5Mjk2ODc1LCJ5IjoyMDV9XQ==" data-look="classic" marker-start="url(#my-svg_classDiagram-extensionStart)"/><path d="M845.484,71.642L947.972,85.201C1050.459,98.761,1255.435,125.881,1357.922,150.107C1460.41,174.333,1460.41,195.667,1460.41,206.333L1460.41,217" id="my-svg-id_Node_ProfileGated_6" class="edge-thickness-normal edge-pattern-solid relation" style=";;;" data-edge="true" data-et="edge" data-id="id_Node_ProfileGated_6" data-points="W3sieCI6ODI4LjM4MjgxMjUsInkiOjY5LjM3OTE0NjYyMzM1MjI4fSx7IngiOjE0NjAuNDEwMTU2MjUsInkiOjE1M30seyJ4IjoxNDYwLjQxMDE1NjI1LCJ5IjoyMTd9XQ==" data-look="classic" marker-start="url(#my-svg_classDiagram-extensionStart)"/><path d="M1850.715,133.25L1850.715,136.542C1850.715,139.833,1850.715,146.417,1850.715,160.375C1850.715,174.333,1850.715,195.667,1850.715,206.333L1850.715,217" id="my-svg-id_Topic_QosProfile_7" class="edge-thickness-normal edge-pattern-solid relation" style=";;;" data-edge="true" data-et="edge" data-id="id_Topic_QosProfile_7" data-points="W3sieCI6MTg1MC43MTQ4NDM3NSwieSI6MTE2fSx7IngiOjE4NTAuNzE0ODQzNzUsInkiOjE1M30seyJ4IjoxODUwLjcxNDg0Mzc1LCJ5IjoyMTd9XQ==" data-look="classic" marker-start="url(#my-svg_classDiagram-extensionStart)"/></g><g class="edgeLabels"><g class="edgeLabel" transform="translate(94.609375, 153)"><g class="label" data-id="id_Node_LifecycleNode_1" transform="translate(-34.4609375, -12)"><foreignObject width="68.921875" height="24"><div xmlns="http://www.w3.org/1999/xhtml" class="labelBkg" style="display: table-cell; white-space: nowrap; line-height: 1.5; max-width: 200px; text-align: center;"><span class="edgeLabel"><p>extension</p></span></div></foreignObject></g></g><g class="edgeLabel" transform="translate(351.41015625, 153)"><g class="label" data-id="id_Node_ClassA_2" transform="translate(-34.4609375, -12)"><foreignObject width="68.921875" height="24"><div xmlns="http://www.w3.org/1999/xhtml" class="labelBkg" style="display: table-cell; white-space: nowrap; line-height: 1.5; max-width: 200px; text-align: center;"><span class="edgeLabel"><p>extension</p></span></div></foreignObject></g></g><g class="edgeLabel" transform="translate(636.06640625, 153)"><g class="label" data-id="id_Node_ClassB_3" transform="translate(-34.4609375, -12)"><foreignObject width="68.921875" height="24"><div xmlns="http://www.w3.org/1999/xhtml" class="labelBkg" style="display: table-cell; white-space: nowrap; line-height: 1.5; max-width: 200px; text-align: center;"><span class="edgeLabel"><p>extension</p></span></div></foreignObject></g></g><g class="edgeLabel" transform="translate(909.15234375, 153)"><g class="label" data-id="id_Node_ClassC_4" transform="translate(-34.4609375, -12)"><foreignObject width="68.921875" height="24"><div xmlns="http://www.w3.org/1999/xhtml" class="labelBkg" style="display: table-cell; white-space: nowrap; line-height: 1.5; max-width: 200px; text-align: center;"><span class="edgeLabel"><p>extension</p></span></div></foreignObject></g></g><g class="edgeLabel" transform="translate(1181.29296875, 153)"><g class="label" data-id="id_Node_ThirdParty_5" transform="translate(-34.4609375, -12)"><foreignObject width="68.921875" height="24"><div xmlns="http://www.w3.org/1999/xhtml" class="labelBkg" style="display: table-cell; white-space: nowrap; line-height: 1.5; max-width: 200px; text-align: center;"><span class="edgeLabel"><p>extension</p></span></div></foreignObject></g></g><g class="edgeLabel" transform="translate(1460.41015625, 153)"><g class="label" data-id="id_Node_ProfileGated_6" transform="translate(-34.4609375, -12)"><foreignObject width="68.921875" height="24"><div xmlns="http://www.w3.org/1999/xhtml" class="labelBkg" style="display: table-cell; white-space: nowrap; line-height: 1.5; max-width: 200px; text-align: center;"><span class="edgeLabel"><p>extension</p></span></div></foreignObject></g></g><g class="edgeLabel" transform="translate(1850.71484375, 153)"><g class="label" data-id="id_Topic_QosProfile_7" transform="translate(-34.4609375, -12)"><foreignObject width="68.921875" height="24"><div xmlns="http://www.w3.org/1999/xhtml" class="labelBkg" style="display: table-cell; white-space: nowrap; line-height: 1.5; max-width: 200px; text-align: center;"><span class="edgeLabel"><p>extension</p></span></div></foreignObject></g></g></g><g class="nodes"><g class="node default" id="my-svg-classId-Node-0" data-look="classic" transform="translate(772.609375, 62)"><g class="basic label-container outer-path"><path d="M-55.7734375 -54 L55.7734375 -54 L55.7734375 54 L-55.7734375 54" stroke="none" stroke-width="0" fill="#ECECFF" style=""/><path d="M-55.7734375 -54 C-24.330405534619445 -54, 7.112626430761111 -54, 55.7734375 -54 M-55.7734375 -54 C-13.793106321346052 -54, 28.187224857307896 -54, 55.7734375 -54 M55.7734375 -54 C55.7734375 -27.413345539182554, 55.7734375 -0.8266910783651085, 55.7734375 54 M55.7734375 -54 C55.7734375 -17.392482408046135, 55.7734375 19.21503518390773, 55.7734375 54 M55.7734375 54 C31.893562496687075 54, 8.01368749337415 54, -55.7734375 54 M55.7734375 54 C25.44203984918169 54, -4.889357801636621 54, -55.7734375 54 M-55.7734375 54 C-55.7734375 31.13691316397912, -55.7734375 8.27382632795824, -55.7734375 -54 M-55.7734375 54 C-55.7734375 11.901743721452121, -55.7734375 -30.196512557095758, -55.7734375 -54" stroke="#9370DB" stroke-width="1.3" fill="none" stroke-dasharray="0 0" style=""/></g><g class="annotation-group text" transform="translate(-43.7734375, -30)"><g class="label" style="" transform="translate(0,-12)"><foreignObject width="87.546875" height="24"><div xmlns="http://www.w3.org/1999/xhtml" style="display: table-cell; white-space: nowrap; line-height: 1.5; max-width: 128px; text-align: center;"><span class="nodeLabel markdown-node-label" style=""><p>«metaclass»</p></span></div></foreignObject></g></g><g class="label-group text" transform="translate(-19.109375, -6)"><g class="label" style="font-weight: bolder" transform="translate(0,-12)"><foreignObject width="38.21875" height="24"><div xmlns="http://www.w3.org/1999/xhtml" style="display: table-cell; white-space: nowrap; line-height: 1.5; max-width: 86px; text-align: center;"><span class="nodeLabel markdown-node-label" style=""><p>Node</p></span></div></foreignObject></g></g><g class="members-group text" transform="translate(-43.7734375, 42)"/><g class="methods-group text" transform="translate(-43.7734375, 72)"/><g class="divider" style=""><path d="M-55.7734375 18 C-11.589414943397848 18.000396102737586, 32.5946076132043 18.00079220547517, 55.7734375 18.001 M-55.7734375 18 C-13.371090436809865 18.000380130300048, 29.03125662638027 18.000760260600096, 55.7734375 18.001" stroke="#9370DB" stroke-width="1.3" fill="none" stroke-dasharray="0 0" style=""/></g><g class="divider" style=""><path d="M-55.7734375 36 C-11.206965670190549 36.000399531334516, 33.3595061596189 36.00079906266903, 55.7734375 36.001 M-55.7734375 36 C-11.220671460501684 36.00039940846428, 33.33209457899663 36.000798816928565, 55.7734375 36.001" stroke="#9370DB" stroke-width="1.3" fill="none" stroke-dasharray="0 0" style=""/></g></g><g class="node default" id="my-svg-classId-LifecycleNode-1" data-look="classic" transform="translate(94.609375, 289)"><g class="basic label-container outer-path"><path d="M-86.609375 -99 L86.609375 -99 L86.609375 99 L-86.609375 99" stroke="none" stroke-width="0" fill="#ECECFF" style=""/><path d="M-86.609375 -99 C-20.7145539604077 -99, 45.1802670791846 -99, 86.609375 -99 M-86.609375 -99 C-31.242582780235303 -99, 24.124209439529395 -99, 86.609375 -99 M86.609375 -99 C86.609375 -55.26584419830436, 86.609375 -11.531688396608715, 86.609375 99 M86.609375 -99 C86.609375 -55.93026294929368, 86.609375 -12.860525898587355, 86.609375 99 M86.609375 99 C41.7850774938985 99, -3.0392200122030033 99, -86.609375 99 M86.609375 99 C24.898125924570166 99, -36.81312315085967 99, -86.609375 99 M-86.609375 99 C-86.609375 53.805746621540486, -86.609375 8.611493243080972, -86.609375 -99 M-86.609375 99 C-86.609375 27.227768674075236, -86.609375 -44.54446265184953, -86.609375 -99" stroke="#9370DB" stroke-width="1.3" fill="none" stroke-dasharray="0 0" style=""/></g><g class="annotation-group text" transform="translate(-46.8671875, -75)"><g class="label" style="" transform="translate(0,-12)"><foreignObject width="93.734375" height="24"><div xmlns="http://www.w3.org/1999/xhtml" style="display: table-cell; white-space: nowrap; line-height: 1.5; max-width: 132px; text-align: center;"><span class="nodeLabel markdown-node-label" style=""><p>«stereotype»</p></span></div></foreignObject></g></g><g class="label-group text" transform="translate(-52.890625, -51)"><g class="label" style="font-weight: bolder" transform="translate(0,-12)"><foreignObject width="105.78125" height="24"><div xmlns="http://www.w3.org/1999/xhtml" style="display: table-cell; white-space: nowrap; line-height: 1.5; max-width: 146px; text-align: center;"><span class="nodeLabel markdown-node-label" style=""><p>LifecycleNode</p></span></div></foreignObject></g></g><g class="members-group text" transform="translate(-74.609375, -3)"/><g class="methods-group text" transform="translate(-74.609375, 27)"><g class="label" style="" transform="translate(0,-12)"><foreignObject width="87.59375" height="24"><div xmlns="http://www.w3.org/1999/xhtml" style="display: table-cell; white-space: nowrap; line-height: 1.5; max-width: 136px; text-align: center;"><span class="nodeLabel markdown-node-label" style=""><p>+configure()</p></span></div></foreignObject></g><g class="label" style="" transform="translate(0,12)"><foreignObject width="78.6875" height="24"><div xmlns="http://www.w3.org/1999/xhtml" style="display: table-cell; white-space: nowrap; line-height: 1.5; max-width: 125px; text-align: center;"><span class="nodeLabel markdown-node-label" style=""><p>+activate()</p></span></div></foreignObject></g><g class="label" style="" transform="translate(0,36)"><foreignObject width="96.328125" height="24"><div xmlns="http://www.w3.org/1999/xhtml" style="display: table-cell; white-space: nowrap; line-height: 1.5; max-width: 140px; text-align: center;"><span class="nodeLabel markdown-node-label" style=""><p>+deactivate()</p></span></div></foreignObject></g></g><g class="divider" style=""><path d="M-86.609375 -27 C-46.60655608792336 -26.99976906184283, -6.603737175846717 -26.99953812368566, 86.609375 -26.999 M-86.609375 -27 C-22.220896772594884 -26.99962828228337, 42.16758145481023 -26.99925656456674, 86.609375 -26.999" stroke="#9370DB" stroke-width="1.3" fill="none" stroke-dasharray="0 0" style=""/></g><g class="divider" style=""><path d="M-86.609375 -3 C-19.114954553007905 -2.9996103515326893, 48.37946589398419 -2.9992207030653786, 86.609375 -2.999 M-86.609375 -3 C-18.896585767140778 -2.999609090879406, 48.816203465718445 -2.9992181817588124, 86.609375 -2.999" stroke="#9370DB" stroke-width="1.3" fill="none" stroke-dasharray="0 0" style=""/></g></g><g class="node default" id="my-svg-classId-ClassA-2" data-look="classic" transform="translate(351.41015625, 289)"><g class="basic label-container outer-path"><path d="M-120.19140625 -96 L120.19140625 -96 L120.19140625 96 L-120.19140625 96" stroke="none" stroke-width="0" fill="#ECECFF" style=""/><path d="M-120.19140625 -96 C-29.73701824067588 -96, 60.71736976864824 -96, 120.19140625 -96 M-120.19140625 -96 C-63.81239242119711 -96, -7.43337859239422 -96, 120.19140625 -96 M120.19140625 -96 C120.19140625 -25.276679209665602, 120.19140625 45.446641580668796, 120.19140625 96 M120.19140625 -96 C120.19140625 -41.828959026831775, 120.19140625 12.34208194633645, 120.19140625 96 M120.19140625 96 C33.431718074330206 96, -53.32797010133959 96, -120.19140625 96 M120.19140625 96 C58.43328894068548 96, -3.324828368629042 96, -120.19140625 96 M-120.19140625 96 C-120.19140625 28.197555652796538, -120.19140625 -39.604888694406924, -120.19140625 -96 M-120.19140625 96 C-120.19140625 49.47429660955897, -120.19140625 2.9485932191179387, -120.19140625 -96" stroke="#9370DB" stroke-width="1.3" fill="none" stroke-dasharray="0 0" style=""/></g><g class="annotation-group text" transform="translate(-46.8671875, -72)"><g class="label" style="" transform="translate(0,-12)"><foreignObject width="93.734375" height="24"><div xmlns="http://www.w3.org/1999/xhtml" style="display: table-cell; white-space: nowrap; line-height: 1.5; max-width: 132px; text-align: center;"><span class="nodeLabel markdown-node-label" style=""><p>«stereotype»</p></span></div></foreignObject></g></g><g class="label-group text" transform="translate(-23.4765625, -48)"><g class="label" style="font-weight: bolder" transform="translate(0,-12)"><foreignObject width="46.953125" height="24"><div xmlns="http://www.w3.org/1999/xhtml" style="display: table-cell; white-space: nowrap; line-height: 1.5; max-width: 97px; text-align: center;"><span class="nodeLabel markdown-node-label" style=""><p>ClassA</p></span></div></foreignObject></g></g><g class="members-group text" transform="translate(-108.19140625, 0)"><g class="label" style="" transform="translate(0,-12)"><foreignObject width="169.515625" height="24"><div xmlns="http://www.w3.org/1999/xhtml" style="display: table-cell; white-space: nowrap; line-height: 1.5; max-width: 203px; text-align: center;"><span class="nodeLabel markdown-node-label" style=""><p>criticality = localisation</p></span></div></foreignObject></g><g class="label" style="" transform="translate(0,12)"><foreignObject width="122.390625" height="24"><div xmlns="http://www.w3.org/1999/xhtml" style="display: table-cell; white-space: nowrap; line-height: 1.5; max-width: 160px; text-align: center;"><span class="nodeLabel markdown-node-label" style=""><p>neverShed = true</p></span></div></foreignObject></g><g class="label" style="" transform="translate(0,36)"><foreignObject width="120.140625" height="24"><div xmlns="http://www.w3.org/1999/xhtml" style="display: table-cell; white-space: nowrap; line-height: 1.5; max-width: 158px; text-align: center;"><span class="nodeLabel markdown-node-label" style=""><p>heartbeat = 5 Hz</p></span></div></foreignObject></g></g><g class="methods-group text" transform="translate(-108.19140625, 96)"/><g class="divider" style=""><path d="M-120.19140625 -24 C-52.18159526582453 -23.999717077064382, 15.828215718350947 -23.999434154128767, 120.19140625 -23.999 M-120.19140625 -24 C-42.627039773726565 -23.99967732981543, 34.93732670254687 -23.999354659630864, 120.19140625 -23.999" stroke="#9370DB" stroke-width="1.3" fill="none" stroke-dasharray="0 0" style=""/></g><g class="divider" style=""><path d="M-120.19140625 72 C-70.94287084508139 72.00020487544386, -21.69433544016276 72.0004097508877, 120.19140625 72.001 M-120.19140625 72 C-48.80188740466663 72.00029698262577, 22.58763144066674 72.00059396525154, 120.19140625 72.001" stroke="#9370DB" stroke-width="1.3" fill="none" stroke-dasharray="0 0" style=""/></g></g><g class="node default" id="my-svg-classId-ClassB-3" data-look="classic" transform="translate(636.06640625, 289)"><g class="basic label-container outer-path"><path d="M-114.46484375 -84 L114.46484375 -84 L114.46484375 84 L-114.46484375 84" stroke="none" stroke-width="0" fill="#ECECFF" style=""/><path d="M-114.46484375 -84 C-40.84305730980587 -84, 32.77872913038826 -84, 114.46484375 -84 M-114.46484375 -84 C-54.18098865780992 -84, 6.102866434380161 -84, 114.46484375 -84 M114.46484375 -84 C114.46484375 -39.16841269838278, 114.46484375 5.663174603234438, 114.46484375 84 M114.46484375 -84 C114.46484375 -45.28403043767438, 114.46484375 -6.568060875348763, 114.46484375 84 M114.46484375 84 C58.42193029626005 84, 2.3790168425201017 84, -114.46484375 84 M114.46484375 84 C32.2348872897184 84, -49.9950691705632 84, -114.46484375 84 M-114.46484375 84 C-114.46484375 45.35513013127982, -114.46484375 6.710260262559643, -114.46484375 -84 M-114.46484375 84 C-114.46484375 44.628871244906996, -114.46484375 5.257742489813992, -114.46484375 -84" stroke="#9370DB" stroke-width="1.3" fill="none" stroke-dasharray="0 0" style=""/></g><g class="annotation-group text" transform="translate(-46.8671875, -60)"><g class="label" style="" transform="translate(0,-12)"><foreignObject width="93.734375" height="24"><div xmlns="http://www.w3.org/1999/xhtml" style="display: table-cell; white-space: nowrap; line-height: 1.5; max-width: 132px; text-align: center;"><span class="nodeLabel markdown-node-label" style=""><p>«stereotype»</p></span></div></foreignObject></g></g><g class="label-group text" transform="translate(-23.171875, -36)"><g class="label" style="font-weight: bolder" transform="translate(0,-12)"><foreignObject width="46.34375" height="24"><div xmlns="http://www.w3.org/1999/xhtml" style="display: table-cell; white-space: nowrap; line-height: 1.5; max-width: 95px; text-align: center;"><span class="nodeLabel markdown-node-label" style=""><p>ClassB</p></span></div></foreignObject></g></g><g class="members-group text" transform="translate(-102.46484375, 12)"><g class="label" style="" transform="translate(0,-12)"><foreignObject width="158.0625" height="24"><div xmlns="http://www.w3.org/1999/xhtml" style="display: table-cell; white-space: nowrap; line-height: 1.5; max-width: 193px; text-align: center;"><span class="nodeLabel markdown-node-label" style=""><p>criticality = autonomy</p></span></div></foreignObject></g><g class="label" style="" transform="translate(0,12)"><foreignObject width="95.96875" height="24"><div xmlns="http://www.w3.org/1999/xhtml" style="display: table-cell; white-space: nowrap; line-height: 1.5; max-width: 143px; text-align: center;"><span class="nodeLabel markdown-node-label" style=""><p>onLoss = hold</p></span></div></foreignObject></g></g><g class="methods-group text" transform="translate(-102.46484375, 84)"/><g class="divider" style=""><path d="M-114.46484375 -12 C-26.376973079643278 -11.999615218665468, 61.710897590713444 -11.999230437330935, 114.46484375 -11.999 M-114.46484375 -12 C-38.255909937682446 -11.999667107684266, 37.95302387463511 -11.999334215368531, 114.46484375 -11.999" stroke="#9370DB" stroke-width="1.3" fill="none" stroke-dasharray="0 0" style=""/></g><g class="divider" style=""><path d="M-114.46484375 60 C-57.418895153468405 60.000249185456106, -0.3729465569368102 60.00049837091222, 114.46484375 60.001 M-114.46484375 60 C-26.95546779083419 60.000382254380874, 60.55390816833162 60.00076450876175, 114.46484375 60.001" stroke="#9370DB" stroke-width="1.3" fill="none" stroke-dasharray="0 0" style=""/></g></g><g class="node default" id="my-svg-classId-ClassC-4" data-look="classic" transform="translate(909.15234375, 289)"><g class="basic label-container outer-path"><path d="M-108.62109375 -84 L108.62109375 -84 L108.62109375 84 L-108.62109375 84" stroke="none" stroke-width="0" fill="#ECECFF" style=""/><path d="M-108.62109375 -84 C-46.424604912324035 -84, 15.77188392535193 -84, 108.62109375 -84 M-108.62109375 -84 C-57.31992299756749 -84, -6.018752245134976 -84, 108.62109375 -84 M108.62109375 -84 C108.62109375 -28.381297003342752, 108.62109375 27.237405993314496, 108.62109375 84 M108.62109375 -84 C108.62109375 -18.160256585850803, 108.62109375 47.679486828298394, 108.62109375 84 M108.62109375 84 C24.402961836126963 84, -59.815170077746075 84, -108.62109375 84 M108.62109375 84 C50.06697087689171 84, -8.487151996216582 84, -108.62109375 84 M-108.62109375 84 C-108.62109375 25.319654042921343, -108.62109375 -33.360691914157314, -108.62109375 -84 M-108.62109375 84 C-108.62109375 24.283248852673935, -108.62109375 -35.43350229465213, -108.62109375 -84" stroke="#9370DB" stroke-width="1.3" fill="none" stroke-dasharray="0 0" style=""/></g><g class="annotation-group text" transform="translate(-46.8671875, -60)"><g class="label" style="" transform="translate(0,-12)"><foreignObject width="93.734375" height="24"><div xmlns="http://www.w3.org/1999/xhtml" style="display: table-cell; white-space: nowrap; line-height: 1.5; max-width: 132px; text-align: center;"><span class="nodeLabel markdown-node-label" style=""><p>«stereotype»</p></span></div></foreignObject></g></g><g class="label-group text" transform="translate(-23.3046875, -36)"><g class="label" style="font-weight: bolder" transform="translate(0,-12)"><foreignObject width="46.609375" height="24"><div xmlns="http://www.w3.org/1999/xhtml" style="display: table-cell; white-space: nowrap; line-height: 1.5; max-width: 96px; text-align: center;"><span class="nodeLabel markdown-node-label" style=""><p>ClassC</p></span></div></foreignObject></g></g><g class="members-group text" transform="translate(-96.62109375, 12)"><g class="label" style="" transform="translate(0,-12)"><foreignObject width="146.375" height="24"><div xmlns="http://www.w3.org/1999/xhtml" style="display: table-cell; white-space: nowrap; line-height: 1.5; max-width: 184px; text-align: center;"><span class="nodeLabel markdown-node-label" style=""><p>criticality = advisory</p></span></div></foreignObject></g><g class="label" style="" transform="translate(0,12)"><foreignObject width="112.921875" height="24"><div xmlns="http://www.w3.org/1999/xhtml" style="display: table-cell; white-space: nowrap; line-height: 1.5; max-width: 151px; text-align: center;"><span class="nodeLabel markdown-node-label" style=""><p>shedFirst = true</p></span></div></foreignObject></g></g><g class="methods-group text" transform="translate(-96.62109375, 84)"/><g class="divider" style=""><path d="M-108.62109375 -12 C-51.53634668680152 -11.999737229919658, 5.548400376396955 -11.999474459839314, 108.62109375 -11.999 M-108.62109375 -12 C-41.654439643971415 -11.999691741945353, 25.31221446205717 -11.999383483890707, 108.62109375 -11.999" stroke="#9370DB" stroke-width="1.3" fill="none" stroke-dasharray="0 0" style=""/></g><g class="divider" style=""><path d="M-108.62109375 60 C-33.06220850802066 60.00034780944765, 42.49667673395868 60.000695618895314, 108.62109375 60.001 M-108.62109375 60 C-65.11736197863289 60.00020025452824, -21.613630207265757 60.000400509056476, 108.62109375 60.001" stroke="#9370DB" stroke-width="1.3" fill="none" stroke-dasharray="0 0" style=""/></g></g><g class="node default" id="my-svg-classId-ThirdParty-5" data-look="classic" transform="translate(1181.29296875, 289)"><g class="basic label-container outer-path"><path d="M-113.51953125 -84 L113.51953125 -84 L113.51953125 84 L-113.51953125 84" stroke="none" stroke-width="0" fill="#ECECFF" style=""/><path d="M-113.51953125 -84 C-43.84704711856156 -84, 25.825437012876876 -84, 113.51953125 -84 M-113.51953125 -84 C-44.61712743865702 -84, 24.285276372685956 -84, 113.51953125 -84 M113.51953125 -84 C113.51953125 -47.4152834444017, 113.51953125 -10.830566888803403, 113.51953125 84 M113.51953125 -84 C113.51953125 -27.094382214479865, 113.51953125 29.81123557104027, 113.51953125 84 M113.51953125 84 C56.25594907402149 84, -1.0076331019570262 84, -113.51953125 84 M113.51953125 84 C61.831949986205935 84, 10.144368722411869 84, -113.51953125 84 M-113.51953125 84 C-113.51953125 48.43298240093176, -113.51953125 12.865964801863527, -113.51953125 -84 M-113.51953125 84 C-113.51953125 20.18519654676895, -113.51953125 -43.6296069064621, -113.51953125 -84" stroke="#9370DB" stroke-width="1.3" fill="none" stroke-dasharray="0 0" style=""/></g><g class="annotation-group text" transform="translate(-46.8671875, -60)"><g class="label" style="" transform="translate(0,-12)"><foreignObject width="93.734375" height="24"><div xmlns="http://www.w3.org/1999/xhtml" style="display: table-cell; white-space: nowrap; line-height: 1.5; max-width: 132px; text-align: center;"><span class="nodeLabel markdown-node-label" style=""><p>«stereotype»</p></span></div></foreignObject></g></g><g class="label-group text" transform="translate(-39.53125, -36)"><g class="label" style="font-weight: bolder" transform="translate(0,-12)"><foreignObject width="79.0625" height="24"><div xmlns="http://www.w3.org/1999/xhtml" style="display: table-cell; white-space: nowrap; line-height: 1.5; max-width: 120px; text-align: center;"><span class="nodeLabel markdown-node-label" style=""><p>ThirdParty</p></span></div></foreignObject></g></g><g class="members-group text" transform="translate(-101.51953125, 12)"><g class="label" style="" transform="translate(0,-12)"><foreignObject width="129.015625" height="24"><div xmlns="http://www.w3.org/1999/xhtml" style="display: table-cell; white-space: nowrap; line-height: 1.5; max-width: 167px; text-align: center;"><span class="nodeLabel markdown-node-label" style=""><p>unmodified = true</p></span></div></foreignObject></g><g class="label" style="" transform="translate(0,12)"><foreignObject width="156.171875" height="24"><div xmlns="http://www.w3.org/1999/xhtml" style="display: table-cell; white-space: nowrap; line-height: 1.5; max-width: 192px; text-align: center;"><span class="nodeLabel markdown-node-label" style=""><p>pinnedVersion : string</p></span></div></foreignObject></g></g><g class="methods-group text" transform="translate(-101.51953125, 84)"/><g class="divider" style=""><path d="M-113.51953125 -12 C-57.01754710662486 -11.999751135405859, -0.515562963249721 -11.999502270811718, 113.51953125 -11.999 M-113.51953125 -12 C-61.07156750698336 -11.99976899145387, -8.623603763966713 -11.99953798290774, 113.51953125 -11.999" stroke="#9370DB" stroke-width="1.3" fill="none" stroke-dasharray="0 0" style=""/></g><g class="divider" style=""><path d="M-113.51953125 60 C-61.98181986379936 60.00022699931377, -10.444108477598718 60.000453998627535, 113.51953125 60.001 M-113.51953125 60 C-28.943923472827706 60.00037251566689, 55.63168430434459 60.00074503133378, 113.51953125 60.001" stroke="#9370DB" stroke-width="1.3" fill="none" stroke-dasharray="0 0" style=""/></g></g><g class="node default" id="my-svg-classId-ProfileGated-6" data-look="classic" transform="translate(1460.41015625, 289)"><g class="basic label-container outer-path"><path d="M-115.59765625 -72 L115.59765625 -72 L115.59765625 72 L-115.59765625 72" stroke="none" stroke-width="0" fill="#ECECFF" style=""/><path d="M-115.59765625 -72 C-36.84636439213173 -72, 41.904927465736534 -72, 115.59765625 -72 M-115.59765625 -72 C-65.6651221857133 -72, -15.732588121426602 -72, 115.59765625 -72 M115.59765625 -72 C115.59765625 -18.847041867633727, 115.59765625 34.305916264732545, 115.59765625 72 M115.59765625 -72 C115.59765625 -31.154071467042733, 115.59765625 9.691857065914533, 115.59765625 72 M115.59765625 72 C52.046509143711404 72, -11.504637962577192 72, -115.59765625 72 M115.59765625 72 C45.298000044378526 72, -25.00165616124295 72, -115.59765625 72 M-115.59765625 72 C-115.59765625 17.476764630705397, -115.59765625 -37.04647073858921, -115.59765625 -72 M-115.59765625 72 C-115.59765625 27.522517876118087, -115.59765625 -16.954964247763826, -115.59765625 -72" stroke="#9370DB" stroke-width="1.3" fill="none" stroke-dasharray="0 0" style=""/></g><g class="annotation-group text" transform="translate(-46.8671875, -48)"><g class="label" style="" transform="translate(0,-12)"><foreignObject width="93.734375" height="24"><div xmlns="http://www.w3.org/1999/xhtml" style="display: table-cell; white-space: nowrap; line-height: 1.5; max-width: 132px; text-align: center;"><span class="nodeLabel markdown-node-label" style=""><p>«stereotype»</p></span></div></foreignObject></g></g><g class="label-group text" transform="translate(-46.9921875, -24)"><g class="label" style="font-weight: bolder" transform="translate(0,-12)"><foreignObject width="93.984375" height="24"><div xmlns="http://www.w3.org/1999/xhtml" style="display: table-cell; white-space: nowrap; line-height: 1.5; max-width: 134px; text-align: center;"><span class="nodeLabel markdown-node-label" style=""><p>ProfileGated</p></span></div></foreignObject></g></g><g class="members-group text" transform="translate(-103.59765625, 24)"><g class="label" style="" transform="translate(0,-12)"><foreignObject width="160.203125" height="24"><div xmlns="http://www.w3.org/1999/xhtml" style="display: table-cell; white-space: nowrap; line-height: 1.5; max-width: 196px; text-align: center;"><span class="nodeLabel markdown-node-label" style=""><p>activeIn : FlightProfile</p></span></div></foreignObject></g></g><g class="methods-group text" transform="translate(-103.59765625, 72)"/><g class="divider" style=""><path d="M-115.59765625 0 C-59.36856642033265 0.00024321033684308521, -3.1394765906652964 0.00048642067368617043, 115.59765625 0.001 M-115.59765625 0 C-36.639211743179104 0.0003415226876921257, 42.31923276364179 0.0006830453753842514, 115.59765625 0.001" stroke="#9370DB" stroke-width="1.3" fill="none" stroke-dasharray="0 0" style=""/></g><g class="divider" style=""><path d="M-115.59765625 48 C-40.321641688980634 48.0003255948996, 34.95437287203873 48.00065118979919, 115.59765625 48.001 M-115.59765625 48 C-59.52755462186612 48.00024252265767, -3.4574529937322467 48.00048504531534, 115.59765625 48.001" stroke="#9370DB" stroke-width="1.3" fill="none" stroke-dasharray="0 0" style=""/></g></g><g class="node default" id="my-svg-classId-Topic-7" data-look="classic" transform="translate(1850.71484375, 62)"><g class="basic label-container outer-path"><path d="M-55.7734375 -54 L55.7734375 -54 L55.7734375 54 L-55.7734375 54" stroke="none" stroke-width="0" fill="#ECECFF" style=""/><path d="M-55.7734375 -54 C-21.70186223581657 -54, 12.36971302836686 -54, 55.7734375 -54 M-55.7734375 -54 C-28.967381096696393 -54, -2.1613246933927854 -54, 55.7734375 -54 M55.7734375 -54 C55.7734375 -26.55439887978027, 55.7734375 0.891202240439462, 55.7734375 54 M55.7734375 -54 C55.7734375 -23.11238675004088, 55.7734375 7.77522649991824, 55.7734375 54 M55.7734375 54 C20.176472105509482 54, -15.420493288981035 54, -55.7734375 54 M55.7734375 54 C11.815601755296846 54, -32.14223398940631 54, -55.7734375 54 M-55.7734375 54 C-55.7734375 28.70401216613224, -55.7734375 3.408024332264482, -55.7734375 -54 M-55.7734375 54 C-55.7734375 29.5873288735424, -55.7734375 5.174657747084801, -55.7734375 -54" stroke="#9370DB" stroke-width="1.3" fill="none" stroke-dasharray="0 0" style=""/></g><g class="annotation-group text" transform="translate(-43.7734375, -30)"><g class="label" style="" transform="translate(0,-12)"><foreignObject width="87.546875" height="24"><div xmlns="http://www.w3.org/1999/xhtml" style="display: table-cell; white-space: nowrap; line-height: 1.5; max-width: 128px; text-align: center;"><span class="nodeLabel markdown-node-label" style=""><p>«metaclass»</p></span></div></foreignObject></g></g><g class="label-group text" transform="translate(-19.53125, -6)"><g class="label" style="font-weight: bolder" transform="translate(0,-12)"><foreignObject width="39.0625" height="24"><div xmlns="http://www.w3.org/1999/xhtml" style="display: table-cell; white-space: nowrap; line-height: 1.5; max-width: 86px; text-align: center;"><span class="nodeLabel markdown-node-label" style=""><p>Topic</p></span></div></foreignObject></g></g><g class="members-group text" transform="translate(-43.7734375, 42)"/><g class="methods-group text" transform="translate(-43.7734375, 72)"/><g class="divider" style=""><path d="M-55.7734375 18 C-26.181035131892802 18.00026529118246, 3.411367236214396 18.000530582364913, 55.7734375 18.001 M-55.7734375 18 C-27.028378326162958 18.000257694885438, 1.716680847674084 18.00051538977087, 55.7734375 18.001" stroke="#9370DB" stroke-width="1.3" fill="none" stroke-dasharray="0 0" style=""/></g><g class="divider" style=""><path d="M-55.7734375 36 C-15.164393954586437 36.00036405361912, 25.444649590827126 36.00072810723824, 55.7734375 36.001 M-55.7734375 36 C-12.919614438016538 36.0003841777106, 29.934208623966924 36.000768355421194, 55.7734375 36.001" stroke="#9370DB" stroke-width="1.3" fill="none" stroke-dasharray="0 0" style=""/></g></g><g class="node default" id="my-svg-classId-QosProfile-8" data-look="classic" transform="translate(1850.71484375, 289)"><g class="basic label-container outer-path"><path d="M-224.70703125 -72 L224.70703125 -72 L224.70703125 72 L-224.70703125 72" stroke="none" stroke-width="0" fill="#ECECFF" style=""/><path d="M-224.70703125 -72 C-72.5368386402335 -72, 79.633353969533 -72, 224.70703125 -72 M-224.70703125 -72 C-111.44745998314278 -72, 1.8121112837144437 -72, 224.70703125 -72 M224.70703125 -72 C224.70703125 -20.55900351619111, 224.70703125 30.881992967617776, 224.70703125 72 M224.70703125 -72 C224.70703125 -27.248365114638887, 224.70703125 17.503269770722227, 224.70703125 72 M224.70703125 72 C80.02438639856342 72, -64.65825845287316 72, -224.70703125 72 M224.70703125 72 C132.47554958799037 72, 40.244067925980715 72, -224.70703125 72 M-224.70703125 72 C-224.70703125 26.355001792791853, -224.70703125 -19.289996414416294, -224.70703125 -72 M-224.70703125 72 C-224.70703125 26.252618252275113, -224.70703125 -19.494763495449774, -224.70703125 -72" stroke="#9370DB" stroke-width="1.3" fill="none" stroke-dasharray="0 0" style=""/></g><g class="annotation-group text" transform="translate(-46.8671875, -48)"><g class="label" style="" transform="translate(0,-12)"><foreignObject width="93.734375" height="24"><div xmlns="http://www.w3.org/1999/xhtml" style="display: table-cell; white-space: nowrap; line-height: 1.5; max-width: 132px; text-align: center;"><span class="nodeLabel markdown-node-label" style=""><p>«stereotype»</p></span></div></foreignObject></g></g><g class="label-group text" transform="translate(-38.5859375, -24)"><g class="label" style="font-weight: bolder" transform="translate(0,-12)"><foreignObject width="77.171875" height="24"><div xmlns="http://www.w3.org/1999/xhtml" style="display: table-cell; white-space: nowrap; line-height: 1.5; max-width: 119px; text-align: center;"><span class="nodeLabel markdown-node-label" style=""><p>QosProfile</p></span></div></foreignObject></g></g><g class="members-group text" transform="translate(-212.70703125, 24)"><g class="label" style="" transform="translate(0,-12)"><foreignObject width="378.546875" height="24"><div xmlns="http://www.w3.org/1999/xhtml" style="display: table-cell; white-space: nowrap; line-height: 1.5; max-width: 453px; text-align: center;"><span class="nodeLabel markdown-node-label" style=""><p>name : SENSOR, ESTIMATE, STATE, COMMAND, EVENT</p></span></div></foreignObject></g></g><g class="methods-group text" transform="translate(-212.70703125, 72)"/><g class="divider" style=""><path d="M-224.70703125 0 C-98.71888708827589 0.0002803386780130497, 27.269257073448216 0.0005606773560260994, 224.70703125 0.001 M-224.70703125 0 C-99.32933406299416 0.0002789803605377966, 26.048363124011672 0.0005579607210755931, 224.70703125 0.001" stroke="#9370DB" stroke-width="1.3" fill="none" stroke-dasharray="0 0" style=""/></g><g class="divider" style=""><path d="M-224.70703125 48 C-64.70462453668566 48.00035602447735, 95.29778217662869 48.00071204895469, 224.70703125 48.001 M-224.70703125 48 C-132.53284925516854 48.00020509857097, -40.358667260337086 48.000410197141946, 224.70703125 48.001" stroke="#9370DB" stroke-width="1.3" fill="none" stroke-dasharray="0 0" style=""/></g></g></g></g></g><defs><filter id="my-svg-drop-shadow" height="130%" width="130%"><feDropShadow dx="4" dy="4" stdDeviation="0" flood-opacity="0.06" flood-color="#000000"/></filter></defs><defs><filter id="my-svg-drop-shadow-small" height="150%" width="150%"><feDropShadow dx="2" dy="2" stdDeviation="0" flood-opacity="0.06" flood-color="#000000"/></filter></defs></svg>